<?xml version="1.0" encoding="UTF-8" standalone="no"?>
<svg xmlns="http://www.w3.org/2000/svg" width="200" height="50" viewBox="0 0 200 50">
  <!-- Logo Background -->
  <defs>
    <linearGradient id="gradient" x1="0%" y1="0%" x2="100%" y2="0%">
      <stop offset="0%" style="stop-color:#2196f3;stop-opacity:1" />
      <stop offset="100%" style="stop-color:#0d47a1;stop-opacity:1" />
    </linearGradient>
  </defs>
  
  <!-- Logo Text -->
  <g fill="url(#gradient)">
    <path d="M15,13 C11.134,13 8,16.134 8,20 C8,23.866 11.134,27 15,27 C18.866,27 22,23.866 22,20 C22,16.134 18.866,13 15,13 Z M15,25 C12.239,25 10,22.761 10,20 C10,17.239 12.239,15 15,15 C17.761,15 20,17.239 20,20 C20,22.761 17.761,25 15,25 Z" />
    <path d="M15,17 L15,23 M12,20 L18,20" stroke="#2196f3" stroke-width="2" />
  </g>
  
  <!-- Clear -->
  <text x="30" y="24" font-family="Arial, sans-serif" font-weight="700" font-size="16" fill="#2196f3">CLEAR</text>
  
  <!-- Path -->
  <text x="80" y="24" font-family="Arial, sans-serif" font-weight="700" font-size="16" fill="#333333">PATH</text>
  
  <!-- Tech Solutions -->
  <text x="30" y="40" font-family="Arial, sans-serif" font-weight="400" font-size="12" fill="#666666">TECH SOLUTIONS</text>
  
  <!-- Circuit Lines -->
  <path d="M150,15 L160,15 L165,20 L175,20" stroke="#2196f3" stroke-width="1" fill="none" />
  <path d="M150,25 L160,25 L165,20" stroke="#2196f3" stroke-width="1" fill="none" />
  <path d="M150,35 L160,35 L165,30 L175,30" stroke="#2196f3" stroke-width="1" fill="none" />
  
  <!-- Dots -->
  <circle cx="175" cy="20" r="2" fill="#2196f3" />
  <circle cx="175" cy="30" r="2" fill="#2196f3" />
  <circle cx="185" cy="25" r="3" fill="#2196f3" />
</svg>